<?xml version="1.0" encoding="UTF-8"?>
<!-- Created with EazyDraw for Mac ( http://www.eazydraw.com/ ) -->

<svg
    version="1.1"
    xmlns:dc="http://purl.org/dc/elements/1.1/"
    xmlns:cc="http://creativecommons.org/ns#"
    xmlns:rdf="http://www.w3.org/1999/02/22-rdf-syntax-ns#"
    xmlns:svg="http://www.w3.org/2000/svg"
    xmlns:xlink="http://www.w3.org/1999/xlink"
    xmlns="http://www.w3.org/2000/svg"
    width="144.8608609"
    height="179.485339144"
    viewBox="0, 0, 144.8608609, 179.485339144"
    preserveAspectRatio="none"
    id="svg2">
   <defs
       id="defs_523B5DD0"/>
   <metadata
       id="metadata7">
      <rdf:RDF>
         <cc:Work
             rdf:about="">
            <dc:format>image/svg+xml</dc:format>
            <dc:type rdf:resource="http://purl.org/dc/dcmitype/StillImage"/>
            <dc:title></dc:title>
         </cc:Work>
      </rdf:RDF>
   </metadata>
   <g
       id="layer_Paper"
       style="fill:#000000;fill-opacity:1;stroke:#000000;stroke-opacity:1;fill-rule:nonzero;stroke-linecap:square;stroke-linejoin:miter;stroke-width:1;stroke-miterlimit:10">
      <rect
          style="fill:none;stroke:#909090;stroke-width:8.15730721"
          id="34B4241C"
          x="18.696103529"
          y="68.6153201654"
          width="108.420102896"
          height="106.258096318"/>
      <line
          style="fill:#D0D0D0;stroke:#FF2600;stroke-width:8.15730721"
          id="0EC6FBD0"
          x1="4.179062593339"
          y1="31.2618211101"
          x2="4.146613211994"
          y2="31.8617185584"/>
      <line
          style="fill:#D0D0D0;stroke:#FF2600;stroke-width:8.15730721"
          id="DDC6FBD0"
          x1="4.146613211994"
          y1="31.8617185584"
          x2="4.223197919258"
          y2="4.152903501986"/>
      <line
          style="fill:#D0D0D0;stroke:#FF2600;stroke-width:8.15730721"
          id="ADC6FBD0"
          x1="4.223197919258"
          y1="4.152903501986"
          x2="28.1285879048"
          y2="4.295462127804"/>
      <line
          style="fill:#D0D0D0;stroke:#FF2600;stroke-width:8.15730721"
          id="7DC6FBD0"
          x1="28.1285879048"
          y1="4.295462127804"
          x2="28.2482767961"
          y2="27.4743554928"/>
      <line
          style="fill:#D0D0D0;stroke:#FF2600;stroke-width:8.15730721"
          id="4DC6FBD0"
          x1="28.2482767961"
          y1="27.4743554928"
          x2="43.7669983075"
          y2="27.4602623996"/>
      <line
          style="fill:#D0D0D0;stroke:#FF2600;stroke-width:8.15730721"
          id="1DC6FBD0"
          x1="43.7669983075"
          y1="27.4602623996"
          x2="43.906653131"
          y2="4.574720805849"/>
      <line
          style="fill:#D0D0D0;stroke:#FF2600;stroke-width:8.15730721"
          id="DCC6FBD0"
          x1="43.906653131"
          y1="4.574720805849"
          x2="67.6880140076"
          y2="4.369670727575"/>
      <line
          style="fill:#D0D0D0;stroke:#FF2600;stroke-width:8.15730721"
          id="ACC6FBD0"
          x1="67.6880140076"
          y1="4.369670727575"
          x2="67.6303941854"
          y2="27.4417102497"/>
      <line
          style="fill:#D0D0D0;stroke:#FF2600;stroke-width:8.15730721"
          id="6CC6FBD0"
          x1="67.6303941854"
          y1="27.4417102497"
          x2="81.3289462835"
          y2="27.4349530052"/>
      <line
          style="fill:#D0D0D0;stroke:#FF2600;stroke-width:8.15730721"
          id="2CC6FBD0"
          x1="81.3289462835"
          y1="27.4349530052"
          x2="81.4720842208"
          y2="4.4247440561"/>
      <line
          style="fill:#D0D0D0;stroke:#FF2600;stroke-width:8.15730721"
          id="EBC6FBD0"
          x1="81.4720842208"
          y1="4.4247440561"
          x2="103.653156667"
          y2="4.256780015841"/>
      <line
          style="fill:#D0D0D0;stroke:#FF2600;stroke-width:8.15730721"
          id="BBC6FBD0"
          x1="103.653156667"
          y1="4.256780015841"
          x2="103.76042579"
          y2="27.4813894723"/>
      <line
          style="fill:#D0D0D0;stroke:#FF2600;stroke-width:8.15730721"
          id="7BC6FBD0"
          x1="103.76042579"
          y1="27.4813894723"
          x2="117.76079501"
          y2="27.4383350959"/>
      <line
          style="fill:#D0D0D0;stroke:#FF2600;stroke-width:8.15730721"
          id="4BC6FBD0"
          x1="117.76079501"
          y1="27.4383350959"
          x2="117.745716769"
          y2="4.296390579025"/>
      <line
          style="fill:#D0D0D0;stroke:#FF2600;stroke-width:8.15730721"
          id="1BC6FBD0"
          x1="117.745716769"
          y1="4.296390579025"
          x2="140.706977911"
          y2="4.376505730218"/>
      <line
          style="fill:#D0D0D0;stroke:#FF2600;stroke-width:8.15730721"
          id="EAC6FBD0"
          x1="140.706977911"
          y1="4.376505730218"
          x2="140.541823436"
          y2="30.9924981445"/>
      <line
          style="fill:#D0D0D0;stroke:#FF2600;stroke-width:8.15730721"
          id="AAC6FBD0"
          x1="140.541823436"
          y1="30.9924981445"
          x2="140.556160054"
          y2="31.7346593513"/>
      <line
          style="fill:#D0D0D0;stroke:#FF2600;stroke-width:8.15730721"
          id="5AC6FBD0"
          x1="140.556160054"
          y1="31.7346593513"
          x2="140.537202029"
          y2="30.3331914969"/>
      <path
          style="fill:none;stroke:#909090;stroke-linecap:butt;stroke-width:4.826809"
          id="C15BD66C"
          d="M69.8241632776,127.784150751 C73.5883121176,127.784150751 77.3524609576,127.784150751 81.1166097976,127.784150751 C86.1166097976,127.784150751 91.1166097976,132.784150751 91.1166097976,137.784150751 C91.1166097976,149.966444661 91.1166097976,162.14873857 91.1166097976,174.33103248
C91.1166097976,174.461616979 90.9860252988,174.592201477 90.8554408001,174.592201477 C80.6094518855,174.592201477 70.363462971,174.592201477 60.1174740564,174.592201477 C59.970818667,174.592201477 59.8241632776,174.445546088 59.8241632776,174.298890699
C59.8241632776,162.127310716 59.8241632776,149.955730734 59.8241632776,137.784150751 C59.8241632776,132.784150751 64.8241632776,127.784150751 69.8241632776,127.784150751 z"/>
      <path
          style="fill:none;stroke:#909090;stroke-linecap:butt;stroke-width:3.3787663"
          id="669D0E7C"
          d="M101.46887346,84.0348699239 C102.877494436,84.0348699239 104.286115412,84.0348699239 105.694736389,84.0348699239 C107.410672543,84.0348699239 109.126608698,85.7508060786 109.126608698,87.4667422333 C109.126608698,92.9755149352 109.126608698,98.484287637 109.126608698,103.993060339
C109.126608698,104.017479665 109.102189372,104.04189899 109.077770047,104.04189899 C105.485270512,104.04189899 101.892770977,104.04189899 98.3002714424,104.04189899 C98.2390686524,104.04189899 98.1778658624,103.9806962 98.1778658624,103.919493411
C98.1778658624,98.388288114 98.1778658624,92.8570828179 98.1778658624,87.3258775215 C98.1778658624,85.6803737227 99.8233696614,84.0348699239 101.46887346,84.0348699239 z"/>
      <path
          style="fill:none;stroke:#909090;stroke-linecap:butt;stroke-width:3.3787663"
          id="9127028C"
          d="M40.9512985815,84.3203140524 C42.3599195576,84.3203140524 43.7685405338,84.3203140524 45.17716151,84.3203140524 C46.8930976647,84.3203140524 48.6090338194,86.0362502071 48.6090338194,87.7521863618 C48.6090338194,93.2609590637 48.6090338194,98.7697317654 48.6090338194,104.278504467
C48.6090338194,104.302923793 48.5846144937,104.327343118 48.560195168,104.327343118 C44.9676956332,104.327343118 41.3751960984,104.327343118 37.7826965636,104.327343118 C37.7214937737,104.327343118 37.6602909839,104.266140329 37.6602909839,104.204937539
C37.6602909839,98.6737322424 37.6602909839,93.1425269464 37.6602909839,87.61132165 C37.6602909839,85.9658178512 39.3057947827,84.3203140524 40.9512985815,84.3203140524 z"/>
      <line
          style="fill:#D0D0D0;stroke:#0F70FA;stroke-width:8.736853599548;stroke-miterlimit:15"
          id="7460A420"
          x1="18.887159693"
          y1="174.569743618"
          x2="127.006722812"
          y2="175.04764619"/>
      <path
          style="fill:none;stroke:#929292;stroke-width:8.332782745361"
          id="727428B0"
          d="M4.216391372681,35.4167726703 L4.216391372681,67.6587910017 L140.443413559,67.6587910017 L140.443413559,34.5298712868 L140.494345607,34.5298712868"/>
   </g>
</svg>
